<?xml version="1.0" encoding="UTF-8"?>
<svg id="Layer_2" data-name="Layer 2" xmlns="http://www.w3.org/2000/svg" viewBox="0 0 1226 236.47">
  <defs>
    <style>
      .cls-1 {
        fill: #4067b1;
      }

      .cls-1, .cls-2, .cls-3 {
        stroke-width: 0px;
      }

      .cls-2 {
        fill-rule: evenodd;
      }

      .cls-2, .cls-3 {
        fill: #fff;
      }
    </style>
  </defs>
  <g id="Cutline">
    <g id="Logo">
      <g>
        <path class="cls-2" d="M118.31,235.97C53.35,235.97.5,183.16.5,118.24S53.35.5,118.31.5s117.81,52.82,117.81,117.74-52.85,117.74-117.81,117.74ZM109.57,48.99c-4.65,0-6.99,0-8.69.87-1.51.77-2.71,1.97-3.48,3.48-.87,1.7-.87,4.04-.87,8.69v26.84c0,1.14,0,1.71.13,2.19.12.43.31.83.57,1.19.29.41.73.77,1.62,1.48l6.79,5.52c1.18.96,1.77,1.43,2.02,2.1.22.59.22,1.23,0,1.82-.25.67-.84,1.15-2.02,2.1l-6.79,5.52c-.89.72-1.33,1.08-1.62,1.48-.26.36-.45.76-.57,1.19-.13.48-.13,1.05-.13,2.19v58.81c0,4.65,0,6.98.87,8.69.77,1.51,1.97,2.71,3.48,3.48,1.7.87,4.04.87,8.69.87h17.47c4.65,0,6.99,0,8.69-.87,1.51-.77,2.71-1.97,3.48-3.48.87-1.7.87-4.04.87-8.69v-26.84c0-1.14,0-1.71-.13-2.19-.12-.43-.31-.83-.57-1.19-.29-.4-.72-.76-1.59-1.46l-6.82-5.54c-1.18-.95-1.77-1.43-2.02-2.1-.22-.59-.22-1.23,0-1.82.25-.67.84-1.15,2.02-2.1l6.79-5.52c.89-.73,1.33-1.08,1.62-1.48.26-.36.45-.76.57-1.19.13-.48.13-1.05.13-2.19v-58.81c0-4.65,0-6.98-.87-8.69-.77-1.51-1.97-2.71-3.48-3.48-1.7-.87-4.04-.87-8.69-.87h-17.47Z"/>
        <path class="cls-1" d="M118.31,1c64.79,0,117.31,52.49,117.31,117.24s-52.52,117.24-117.31,117.24S1,182.99,1,118.24,53.52,1,118.31,1M109.57,187.99h17.47c4.74,0,7.11,0,8.92-.92,1.59-.81,2.89-2.1,3.7-3.7.92-1.81.92-4.18.92-8.91v-26.84c0-1.18,0-1.77-.15-2.32-.13-.48-.35-.94-.64-1.35-.33-.46-.79-.83-1.71-1.58l-6.79-5.52c-1.11-.9-1.66-1.35-1.86-1.89-.18-.47-.18-1,0-1.47.2-.54.75-.99,1.86-1.89l6.79-5.52c.92-.75,1.38-1.12,1.71-1.58.29-.41.51-.87.64-1.35.15-.55.15-1.14.15-2.32v-58.81c0-4.74,0-7.1-.92-8.91-.81-1.59-2.11-2.88-3.7-3.7-1.81-.92-4.18-.92-8.92-.92h-17.47c-4.74,0-7.11,0-8.92.92-1.59.81-2.89,2.1-3.7,3.7-.92,1.81-.92,4.18-.92,8.91v26.84c0,1.18,0,1.77.15,2.32.13.48.35.94.64,1.35.33.46.79.83,1.71,1.58l6.79,5.52c1.11.9,1.66,1.35,1.86,1.89.18.47.18,1,0,1.47-.2.54-.75.99-1.86,1.89l-6.79,5.52c-.92.75-1.38,1.12-1.71,1.58-.29.41-.51.87-.64,1.35-.15.55-.15,1.14-.15,2.32v58.81c0,4.74,0,7.1.92,8.91.81,1.59,2.11,2.88,3.7,3.7,1.81.92,4.18.92,8.92.92M118.31,0c-31.6,0-61.31,12.3-83.65,34.63C12.31,56.96,0,86.66,0,118.24s12.31,61.28,34.65,83.61c22.34,22.33,52.05,34.63,83.65,34.63s61.31-12.3,83.65-34.63c22.35-22.33,34.65-52.02,34.65-83.61s-12.31-61.27-34.65-83.61C179.61,12.3,149.91,0,118.31,0h0ZM109.57,186.99c-4.57,0-6.87,0-8.46-.81-1.41-.72-2.54-1.85-3.26-3.26-.81-1.6-.81-3.89-.81-8.46v-58.81c0-1.09,0-1.64.11-2.06.1-.37.27-.72.49-1.03.25-.35.68-.7,1.52-1.38l6.8-5.52c1.21-.98,1.87-1.52,2.17-2.32.26-.7.26-1.47,0-2.17-.3-.8-.96-1.34-2.17-2.32l-6.8-5.52c-.85-.69-1.27-1.03-1.53-1.39-.22-.31-.39-.66-.49-1.03-.11-.42-.11-.97-.11-2.06v-26.84c0-4.57,0-6.86.81-8.46.72-1.41,1.85-2.54,3.26-3.26,1.6-.81,3.89-.81,8.46-.81h17.47c4.57,0,6.87,0,8.46.81,1.41.72,2.54,1.85,3.26,3.26.81,1.59.81,3.89.81,8.46v58.81c0,1.09,0,1.64-.11,2.06-.1.37-.27.72-.49,1.03-.25.35-.67.69-1.51,1.38l-6.81,5.53c-1.21.98-1.87,1.52-2.17,2.32-.26.7-.26,1.47,0,2.17.3.8.96,1.34,2.17,2.32l6.79,5.52c.86.69,1.28,1.04,1.53,1.38.23.31.39.66.49,1.03.11.42.11.97.11,2.06v26.84c0,4.57,0,6.86-.81,8.46-.72,1.41-1.85,2.54-3.26,3.26-1.6.81-3.89.81-8.46.81h-17.47Z"/>
      </g>
      <g>
        <path class="cls-3" d="M303.06,188.87c-1.44,0-2.6-1.17-2.6-2.6v-100.83c0-.88-.72-1.6-1.6-1.6h-16.41c-1.44,0-2.6-1.17-2.6-2.6v-20.6c0-1.43,1.14-2.59,2.59-2.64,11.98-.37,20.31-4,24.78-10.79.52-.79,1.37-1.26,2.27-1.26h20.31c1.44,0,2.6,1.17,2.6,2.6v137.71c0,1.44-1.17,2.6-2.6,2.6h-26.72Z"/>
        <path class="cls-1" d="M329.78,46.45c1.16,0,2.1.94,2.1,2.1v137.71c0,1.16-.94,2.1-2.1,2.1h-26.72c-1.16,0-2.1-.94-2.1-2.1v-100.83c0-1.16-.94-2.1-2.1-2.1h-16.41c-1.16,0-2.1-.94-2.1-2.1v-20.6c0-1.16.94-2.1,2.11-2.14,11.87-.37,20.52-3.93,25.18-11.01.41-.63,1.1-1.04,1.85-1.04h20.31M329.78,45.45h-20.31c-1.07,0-2.08.56-2.69,1.49-4.37,6.64-12.57,10.19-24.37,10.56-1.72.05-3.07,1.43-3.07,3.14v20.6c0,1.71,1.39,3.1,3.1,3.1h16.41c.61,0,1.1.49,1.1,1.1v100.83c0,1.71,1.39,3.1,3.1,3.1h26.72c1.71,0,3.1-1.39,3.1-3.1V48.55c0-1.71-1.39-3.1-3.1-3.1h0Z"/>
      </g>
      <g>
        <path class="cls-3" d="M358.4,188.87c-1.44,0-2.6-1.17-2.6-2.6V50.28c0-1.44,1.17-2.6,2.6-2.6h52.45c31.23,0,51.41,18.4,51.41,46.87s-20.18,48.38-51.41,48.38h-21.74c-.88,0-1.6.72-1.6,1.6v41.73c0,1.44-1.17,2.6-2.6,2.6h-26.51ZM410.85,115.4c12.06,0,19.26-7.47,19.26-19.99s-7.02-19.99-19.26-19.99h-23.34v39.98h23.34Z"/>
        <path class="cls-1" d="M410.85,48.18c32.22,0,50.91,19.63,50.91,46.37,0,28.25-18.69,47.88-50.91,47.88h-21.74c-1.16,0-2.1.94-2.1,2.1v41.73c0,1.16-.94,2.1-2.1,2.1h-26.51c-1.16,0-2.1-.94-2.1-2.1V50.28c0-1.16.94-2.1,2.1-2.1h52.45M387.01,115.9h23.84c10.95,0,19.76-6.25,19.76-20.49s-8.81-20.49-19.76-20.49h-23.84v40.98M410.85,47.18h-52.45c-1.71,0-3.1,1.39-3.1,3.1v135.99c0,1.71,1.39,3.1,3.1,3.1h26.51c1.71,0,3.1-1.39,3.1-3.1v-41.73c0-.61.5-1.1,1.1-1.1h21.74c15.82,0,29.04-4.71,38.23-13.63,8.95-8.68,13.67-20.87,13.67-35.25s-4.73-25.45-13.68-33.94c-9.27-8.79-22.48-13.43-38.22-13.43h0ZM388.01,75.92h22.84c7.01,0,18.76,2.53,18.76,19.49,0,12.2-7.01,19.49-18.76,19.49h-22.84v-38.98h0Z"/>
      </g>
      <g>
        <path class="cls-3" d="M502.31,191.46c-22.4,0-37.45-13.46-37.45-33.5s13.94-31.13,36.37-31.13h26.85c3.8,0,4.44-1.24,4.44-4.03v-1.51c0-10.87-6.23-17.62-16.25-17.62-8.69,0-14.71,4.4-18.41,13.44-.41,1.01-1.41,1.7-2.49,1.7-.21,0-.42-.02-.62-.07l-23.24-5.7c-.71-.18-1.32-.65-1.67-1.29-.33-.63-.39-1.37-.14-2.03,7.14-19.54,24.55-31.2,46.57-31.2,29.8,0,46.9,17.08,46.9,46.87v60.88c0,1.44-1.17,2.6-2.6,2.6h-23.07c-1.44,0-2.6-1.17-2.6-2.6v-5.26c0-1.1-1.14-1.78-2.19-1.78-.61,0-1.14.22-1.51.61-6.93,7.5-17.19,11.62-28.88,11.62ZM507.9,146.81c-8.25,0-12.6,3.56-12.6,10.28s5.14,10.93,14.11,10.93c13.62,0,23.13-8.04,23.13-19.56v-1.66h-24.63Z"/>
        <path class="cls-1" d="M516.27,79.02c29.86,0,46.4,17.04,46.4,46.37v60.88c0,1.16-.94,2.1-2.1,2.1h-23.07c-1.16,0-2.1-.94-2.1-2.1v-5.26c0-1.39-1.36-2.28-2.69-2.28-.69,0-1.38.24-1.87.77-7.32,7.91-17.7,11.46-28.51,11.46-21.48,0-36.94-12.94-36.94-33,0-18.77,13.53-30.63,35.87-30.63h26.85c3.87,0,4.94-1.29,4.94-4.53v-1.51c0-11.65-6.87-18.12-16.75-18.12s-15.34,5.12-18.87,13.75c-.34.84-1.15,1.39-2.02,1.39-.17,0-.33-.02-.5-.06l-23.24-5.7c-1.18-.29-1.88-1.52-1.46-2.67,6.96-19.03,23.93-30.87,46.1-30.87M509.4,168.53c12.89,0,23.63-7.55,23.63-20.06v-2.16h-25.13c-9.24,0-13.1,4.31-13.1,10.78,0,7.33,5.58,11.43,14.61,11.43M516.27,78.02c-22.24,0-39.82,11.79-47.04,31.53-.29.8-.23,1.69.17,2.44.41.77,1.14,1.33,1.99,1.54l23.24,5.7c.24.06.49.09.74.09,1.29,0,2.45-.79,2.95-2.01,3.61-8.83,9.48-13.13,17.94-13.13,9.72,0,15.75,6.56,15.75,17.12v1.51c0,2.65-.57,3.53-3.94,3.53h-26.85c-22.74,0-36.87,12.12-36.87,31.63,0,10.04,3.72,18.6,10.76,24.77,6.89,6.04,16.29,9.23,27.19,9.23,11.83,0,22.21-4.18,29.24-11.78.36-.39.87-.45,1.14-.45.81,0,1.69.49,1.69,1.28v5.26c0,1.71,1.39,3.1,3.1,3.1h23.07c1.71,0,3.1-1.39,3.1-3.1v-60.88c0-30.11-17.28-47.37-47.4-47.37h0ZM509.4,167.53c-8.65,0-13.61-3.8-13.61-10.43s4.07-9.78,12.1-9.78h24.13v1.16c0,11.22-9.3,19.06-22.63,19.06h0Z"/>
      </g>
      <g>
        <path class="cls-3" d="M618.74,191.46c-24.6,0-41.72-10.01-46.98-27.47-.2-.65-.12-1.33.22-1.92.34-.61.93-1.05,1.61-1.22l21.72-5.5c.21-.05.42-.08.64-.08,1.05,0,2.03.63,2.49,1.62,3.71,7.85,11.1,12.01,21.37,12.01s16.04-3.83,16.04-10.5c0-6.19-9.18-8.26-20.8-10.88-18.48-4.17-41.49-9.35-41.49-34.41,0-21.01,17.23-34.58,43.89-34.58,30.56,0,41.7,15.92,45.65,29.27.2.68.11,1.39-.26,2-.38.62-1.01,1.05-1.73,1.19l-22.17,4.2c-.16.03-.32.05-.48.05-1.11,0-2.13-.72-2.54-1.79-3.21-8.38-9.84-13-18.68-13s-14.54,3.76-14.54,10.07c0,7.62,10.48,10.02,22.62,12.8,17.58,4.03,39.46,9.05,39.46,32.49,0,21.66-18.07,35.66-46.04,35.66Z"/>
        <path class="cls-1" d="M617.46,79.02c25.79,0,40.09,11.74,45.17,28.91.34,1.16-.42,2.33-1.6,2.56l-22.17,4.2c-.13.02-.26.04-.39.04-.91,0-1.73-.59-2.07-1.47-3.09-8.06-9.53-13.32-19.15-13.32s-15.03,4.1-15.03,10.57c0,19.41,62.08,6.04,62.08,45.29,0,20.27-16.54,35.16-45.54,35.16-22.6,0-41-8.84-46.5-27.11-.33-1.1.36-2.24,1.47-2.52l21.73-5.5c.17-.04.35-.06.52-.06.86,0,1.66.52,2.04,1.33,3.76,7.96,11.38,12.29,21.82,12.29,10.95,0,16.54-4.31,16.54-11,0-16.82-62.29-4.75-62.29-45.29,0-18.98,15.03-34.08,43.39-34.08M617.46,78.02c-13.68,0-25.08,3.51-32.97,10.16-7.36,6.2-11.42,15.05-11.42,24.92,0,11.33,4.66,19.69,14.26,25.54,8.16,4.98,18.5,7.31,27.62,9.36,10.95,2.47,20.41,4.6,20.41,10.39,0,6.36-5.66,10-15.54,10q-15.38,0-20.92-11.72c-.55-1.16-1.7-1.9-2.94-1.9-.26,0-.51.03-.76.09l-21.73,5.5c-.81.21-1.52.74-1.92,1.46-.4.71-.5,1.53-.26,2.31,2.73,9.08,8.56,16.14,17.31,20.99,8.07,4.47,18.49,6.83,30.14,6.83,28.27,0,46.54-14.19,46.54-36.16,0-23.84-22.09-28.91-39.85-32.98-11.93-2.73-22.23-5.1-22.23-12.31,0-6.08,5.12-9.57,14.03-9.57s15.08,4.5,18.22,12.68c.48,1.26,1.69,2.11,3,2.11.19,0,.39-.02.58-.05l22.17-4.2c.86-.16,1.61-.68,2.06-1.42.44-.72.56-1.6.32-2.41-2.72-9.18-7.84-16.4-15.22-21.44-7.95-5.44-18.35-8.19-30.91-8.19h0Z"/>
      </g>
      <g>
        <path class="cls-3" d="M715.24,191.46c-24.6,0-41.72-10.01-46.98-27.47-.2-.65-.12-1.33.22-1.92.34-.6.93-1.05,1.61-1.22l21.73-5.5c.21-.05.42-.08.64-.08,1.05,0,2.03.63,2.49,1.62,3.71,7.85,11.1,12.01,21.37,12.01s16.04-3.83,16.04-10.5c0-6.19-9.18-8.26-20.8-10.88-18.49-4.17-41.49-9.35-41.49-34.41,0-21.01,17.23-34.58,43.89-34.58,30.57,0,41.7,15.92,45.65,29.27.2.68.11,1.39-.26,2-.38.62-1.01,1.05-1.72,1.19l-22.17,4.2c-.16.03-.32.05-.48.05-1.11,0-2.13-.72-2.54-1.79-3.21-8.38-9.84-13-18.68-13s-14.54,3.76-14.54,10.07c0,7.62,10.48,10.02,22.62,12.8,17.58,4.03,39.46,9.05,39.46,32.49,0,21.66-18.07,35.66-46.04,35.66Z"/>
        <path class="cls-1" d="M713.95,79.02c25.79,0,40.09,11.74,45.17,28.91.34,1.16-.42,2.33-1.6,2.56l-22.17,4.2c-.13.02-.26.04-.39.04-.91,0-1.74-.59-2.07-1.47-3.09-8.06-9.53-13.32-19.15-13.32s-15.04,4.1-15.04,10.57c0,19.41,62.08,6.04,62.08,45.29,0,20.27-16.54,35.16-45.54,35.16-22.6,0-41-8.84-46.5-27.11-.33-1.1.36-2.24,1.47-2.52l21.73-5.5c.17-.04.34-.06.52-.06.86,0,1.66.52,2.04,1.33,3.76,7.96,11.38,12.29,21.82,12.29,10.95,0,16.54-4.31,16.54-11,0-16.82-62.29-4.75-62.29-45.29,0-18.98,15.04-34.08,43.39-34.08M713.95,78.02c-13.68,0-25.08,3.51-32.97,10.16-7.36,6.2-11.42,15.05-11.42,24.92,0,11.33,4.66,19.69,14.26,25.54,8.16,4.98,18.5,7.31,27.62,9.36,10.95,2.47,20.41,4.6,20.41,10.39,0,6.36-5.66,10-15.54,10q-15.38,0-20.92-11.72c-.55-1.16-1.7-1.9-2.94-1.9-.26,0-.51.03-.76.09l-21.73,5.5c-.81.21-1.51.74-1.92,1.46-.4.71-.5,1.53-.26,2.31,2.73,9.08,8.56,16.14,17.31,20.99,8.07,4.47,18.49,6.83,30.15,6.83,28.27,0,46.54-14.19,46.54-36.16,0-23.84-22.09-28.91-39.85-32.98-11.93-2.73-22.23-5.1-22.23-12.31,0-6.08,5.12-9.57,14.04-9.57s15.08,4.5,18.21,12.68c.48,1.26,1.69,2.11,3,2.11.19,0,.39-.02.58-.05l22.17-4.2c.86-.16,1.61-.68,2.06-1.42.44-.72.55-1.6.31-2.41-2.72-9.18-7.84-16.39-15.22-21.44-7.95-5.44-18.35-8.19-30.91-8.19h0Z"/>
      </g>
      <g>
        <path class="cls-3" d="M861.52,188.87c-1.21,0-2.26-.83-2.54-2.01l-16.53-70.29-16.53,70.29c-.28,1.18-1.32,2.01-2.54,2.01h-33.41c-1.21,0-2.25-.82-2.53-1.99l-24.97-102.56c-.19-.78-.01-1.59.48-2.22.5-.63,1.24-.99,2.05-.99h23.96c1.23,0,2.3.88,2.55,2.08l16.17,79.14,18.85-79.22c.28-1.18,1.32-2,2.53-2h26.56c1.19,0,2.23.81,2.52,1.96l20.32,79.36,16.4-79.24c.25-1.2,1.32-2.08,2.55-2.08h23.74c.81,0,1.55.36,2.05,1,.5.63.67,1.44.48,2.23l-25.17,102.56c-.29,1.17-1.33,1.98-2.53,1.98h-34.49Z"/>
        <path class="cls-1" d="M921.18,81.61c1.37,0,2.37,1.28,2.04,2.6l-25.17,102.56c-.23.94-1.07,1.6-2.04,1.6h-34.49c-.98,0-1.82-.67-2.05-1.62l-17.02-72.36-17.02,72.36c-.22.95-1.07,1.62-2.05,1.62h-33.41c-.97,0-1.82-.66-2.04-1.61l-24.97-102.56c-.32-1.32.68-2.6,2.04-2.6h23.96c1,0,1.86.7,2.06,1.68l16.63,81.36,19.38-81.42c.23-.95,1.07-1.62,2.05-1.62h26.56c.96,0,1.8.65,2.04,1.58l20.86,81.46,16.84-81.36c.2-.98,1.06-1.68,2.06-1.68h23.74M921.18,80.61h-23.74c-1.46,0-2.74,1.04-3.04,2.47l-15.96,77.13-19.79-77.27c-.35-1.37-1.59-2.33-3.01-2.33h-26.56c-1.44,0-2.69.98-3.02,2.38l-18.33,77.02-15.72-76.93c-.29-1.44-1.57-2.48-3.04-2.48h-23.96c-.96,0-1.85.43-2.44,1.19-.59.75-.8,1.72-.58,2.65l24.97,102.56c.34,1.4,1.58,2.37,3.02,2.37h33.41c1.45,0,2.69-.98,3.02-2.39l16.04-68.22,16.04,68.22c.33,1.41,1.58,2.39,3.02,2.39h34.49c1.43,0,2.67-.97,3.01-2.37l25.17-102.56c.23-.93.02-1.9-.57-2.65-.59-.76-1.48-1.19-2.44-1.19h0Z"/>
      </g>
      <g>
        <path class="cls-3" d="M979.97,191.46c-31.27,0-54.84-24.23-54.84-56.36s23.58-56.58,54.84-56.58,54.84,24.32,54.84,56.58-23.58,56.36-54.84,56.36ZM979.97,105.19c-13.83,0-23.13,12.02-23.13,29.91s9.29,29.7,23.13,29.7,23.34-11.93,23.34-29.7-9.6-29.91-23.34-29.91Z"/>
        <path class="cls-1" d="M979.97,79.02c32.22,0,54.34,25.02,54.34,56.08s-22.12,55.86-54.34,55.86-54.34-25.02-54.34-55.86,22.34-56.08,54.34-56.08M979.97,165.29c13.32,0,23.84-11.22,23.84-30.2s-10.52-30.41-23.84-30.41-23.63,11.43-23.63,30.41,10.31,30.2,23.63,30.2M979.97,78.02c-15.54,0-29.71,5.93-39.9,16.7-9.96,10.53-15.44,24.87-15.44,40.37,0,32.42,23.79,56.86,55.34,56.86,15.61,0,29.81-5.92,39.98-16.68,9.91-10.48,15.36-24.75,15.36-40.18s-5.46-29.87-15.36-40.37c-10.16-10.77-24.36-16.71-39.98-16.71h0ZM979.97,164.29c-13.53,0-22.63-11.73-22.63-29.2s9.09-29.41,22.63-29.41c6.32,0,12.05,2.74,16.14,7.72,4.38,5.34,6.7,12.84,6.7,21.69s-2.32,16.3-6.7,21.58c-4.08,4.91-9.81,7.62-16.15,7.62h0Z"/>
      </g>
      <g>
        <path class="cls-3" d="M1048.72,188.87c-1.44,0-2.6-1.17-2.6-2.6v-102.56c0-1.44,1.17-2.6,2.6-2.6h23.28c1.44,0,2.6,1.17,2.6,2.6v17.78c5.58-14.84,16.29-22.97,30.43-22.97,3.76,0,7.05.59,9.78,1.75,1.03.44,1.6,1.55,1.4,2.7l-4.5,25.4c-.22,1.27-1.34,2.19-2.67,2.19-.17,0-.35-.02-.52-.05-2.75-.52-5.66-.8-8.44-.8-20.14,0-22.91,10.64-22.91,22.15v54.41c0,1.44-1.17,2.6-2.6,2.6h-25.86Z"/>
        <path class="cls-1" d="M1105.03,79.02c3.81,0,7,.61,9.59,1.71.83.36,1.26,1.26,1.1,2.15l-4.5,25.4c-.19,1.06-1.13,1.78-2.17,1.78-.14,0-.28-.01-.43-.04-2.83-.54-5.81-.81-8.53-.81-14.18,0-23.41,4.31-23.41,22.65v54.41c0,1.16-.94,2.1-2.1,2.1h-25.86c-1.16,0-2.1-.94-2.1-2.1v-102.56c0-1.16.94-2.1,2.1-2.1h23.29c1.16,0,2.1.94,2.1,2.1v20.76c5.37-17.04,16.54-25.45,30.93-25.45M1105.03,78.02c-13.58,0-24.05,7.37-29.93,20.9v-15.21c0-1.71-1.39-3.1-3.1-3.1h-23.29c-1.71,0-3.1,1.39-3.1,3.1v102.56c0,1.71,1.39,3.1,3.1,3.1h25.86c1.71,0,3.1-1.39,3.1-3.1v-54.41c0-17.97,8.96-21.65,22.41-21.65,2.74,0,5.63.27,8.35.79.2.04.41.06.61.06,1.56,0,2.89-1.1,3.16-2.6l4.5-25.4c.24-1.38-.45-2.72-1.7-3.25-2.8-1.19-6.16-1.79-9.98-1.79h0Z"/>
      </g>
      <g>
        <path class="cls-3" d="M1163.78,191.46c-27.3,0-47.11-23.7-47.11-56.36s19.81-56.58,47.11-56.58c14.74,0,25.07,5.26,31.5,16.06v-43.99c0-1.44,1.17-2.6,2.6-2.6h25c1.44,0,2.6,1.17,2.6,2.6v135.67c0,1.44-1.17,2.6-2.6,2.6h-24.14c-1.44,0-2.6-1.17-2.6-2.6v-14.45c-6.09,13.21-16.71,19.64-32.36,19.64ZM1171.3,104.54c-14.26,0-23.13,11.71-23.13,30.56s8.65,30.34,23.13,30.34,23.13-11.34,23.13-30.34-8.86-30.56-23.13-30.56Z"/>
        <path class="cls-1" d="M1222.9,48.49c1.16,0,2.1.94,2.1,2.1v135.68c0,1.16-.94,2.1-2.1,2.1h-24.14c-1.16,0-2.1-.94-2.1-2.1v-16.88c-6.23,15.53-17.83,21.57-32.86,21.57-27.71,0-46.61-23.94-46.61-55.86s18.9-56.08,46.61-56.08c14.18,0,25.35,4.96,32.01,17.47v-45.9c0-1.16.94-2.1,2.1-2.1h25M1171.3,165.94c15.47,0,23.63-12.73,23.63-30.84s-8.16-31.06-23.63-31.06-23.63,12.94-23.63,31.06,8.16,30.84,23.63,30.84M1222.9,47.49h-25c-1.71,0-3.1,1.39-3.1,3.1v42.25c-6.58-9.97-16.76-14.83-31.01-14.83s-25.82,5.84-34.47,16.44c-8.47,10.38-13.14,24.81-13.14,40.64s4.67,30.21,13.14,40.54c8.64,10.53,20.88,16.33,34.47,16.33,15.09,0,25.56-5.89,31.86-17.99v12.3c0,1.71,1.39,3.1,3.1,3.1h24.14c1.71,0,3.1-1.39,3.1-3.1V50.59c0-1.71-1.39-3.1-3.1-3.1h0ZM1171.3,164.94c-14.17,0-22.63-11.16-22.63-29.84,0-8.95,2.01-16.46,5.82-21.74,3.93-5.44,9.74-8.32,16.8-8.32s12.87,2.88,16.8,8.32c3.81,5.27,5.82,12.79,5.82,21.74,0,18.69-8.46,29.84-22.63,29.84h0Z"/>
      </g>
    </g>
  </g>
</svg>