<?xml version="1.0" encoding="UTF-8"?>
<svg id="Layer_2" data-name="Layer 2" xmlns="http://www.w3.org/2000/svg" viewBox="0 0 236.61 236.47">
  <defs>
    <style>
      .cls-1 {
        fill: #4067b1;
      }

      .cls-1, .cls-2 {
        stroke-width: 0px;
      }

      .cls-2 {
        fill: #f0f3fa;
        fill-rule: evenodd;
      }
    </style>
  </defs>
  <g id="Layer_1-2" data-name="Layer 1">
    <g>
      <path class="cls-2" d="M118.31,235.97C53.35,235.97.5,183.16.5,118.24S53.35.5,118.31.5s117.81,52.82,117.81,117.74-52.85,117.74-117.81,117.74ZM109.57,48.99c-4.65,0-6.99,0-8.69.87-1.51.77-2.71,1.97-3.48,3.48-.87,1.7-.87,4.04-.87,8.69v26.84c0,1.14,0,1.71.13,2.19.12.43.31.83.57,1.19.29.41.73.77,1.62,1.48l6.79,5.52c1.18.96,1.77,1.44,2.02,2.1.22.59.22,1.23,0,1.82-.25.67-.84,1.15-2.01,2.1l-6.8,5.52c-.88.72-1.33,1.08-1.62,1.48-.26.36-.45.76-.57,1.19-.13.48-.13,1.05-.13,2.19v58.81c0,4.65,0,6.98.87,8.69.77,1.51,1.97,2.71,3.48,3.48,1.7.87,4.04.87,8.69.87h17.47c4.65,0,6.99,0,8.69-.87,1.51-.77,2.71-1.97,3.48-3.48.87-1.7.87-4.04.87-8.69v-26.84c0-1.14,0-1.71-.13-2.19-.12-.43-.31-.83-.57-1.19-.29-.4-.73-.76-1.6-1.47l-6.81-5.53c-1.18-.95-1.77-1.43-2.02-2.1-.22-.59-.22-1.23,0-1.82.25-.67.84-1.15,2.01-2.1l6.8-5.52c.89-.72,1.33-1.08,1.62-1.48.26-.36.45-.76.57-1.19.13-.48.13-1.05.13-2.19v-58.81c0-4.65,0-6.98-.87-8.69-.77-1.51-1.97-2.71-3.48-3.48-1.7-.87-4.04-.87-8.69-.87h-17.47Z"/>
      <path class="cls-1" d="M118.31,1c64.79,0,117.31,52.49,117.31,117.24s-52.52,117.24-117.31,117.24S1,182.99,1,118.24,53.52,1,118.31,1M109.57,187.98h17.47c4.74,0,7.11,0,8.92-.92,1.59-.81,2.89-2.1,3.7-3.7.92-1.81.92-4.18.92-8.91v-26.84c0-1.18,0-1.77-.15-2.32-.13-.48-.35-.94-.64-1.35-.33-.46-.79-.83-1.71-1.58l-6.79-5.52c-1.11-.9-1.66-1.35-1.86-1.89-.18-.47-.18-1,0-1.47.2-.54.75-.99,1.86-1.89l6.79-5.52c.92-.75,1.38-1.12,1.71-1.58.29-.41.51-.87.64-1.35.15-.55.15-1.14.15-2.32v-58.81c0-4.74,0-7.1-.92-8.91-.81-1.59-2.11-2.88-3.7-3.7-1.81-.92-4.18-.92-8.92-.92h-17.47c-4.74,0-7.11,0-8.92.92-1.59.81-2.89,2.1-3.7,3.7-.92,1.81-.92,4.18-.92,8.91v26.84c0,1.18,0,1.77.15,2.32.13.48.35.94.64,1.35.33.46.79.83,1.71,1.58l6.79,5.52c1.11.9,1.66,1.35,1.86,1.89.18.47.18,1,0,1.47-.2.54-.75.99-1.86,1.89l-6.79,5.52c-.92.75-1.38,1.12-1.71,1.58-.29.41-.51.87-.64,1.35-.15.55-.15,1.14-.15,2.32v58.81c0,4.74,0,7.1.92,8.91.81,1.59,2.11,2.88,3.7,3.7,1.81.92,4.18.92,8.92.92M118.31,0c-31.6,0-61.31,12.3-83.65,34.63C12.31,56.96,0,86.66,0,118.24s12.31,61.28,34.65,83.61c22.34,22.33,52.05,34.63,83.65,34.63s61.31-12.3,83.65-34.63c22.35-22.33,34.65-52.02,34.65-83.61s-12.31-61.27-34.65-83.61C179.62,12.3,149.91,0,118.31,0h0ZM109.57,186.98c-4.57,0-6.87,0-8.46-.81-1.41-.72-2.54-1.85-3.26-3.26-.81-1.6-.81-3.89-.81-8.46v-58.81c0-1.09,0-1.64.11-2.06.1-.37.27-.72.49-1.03.25-.35.68-.7,1.53-1.39l6.79-5.52c1.21-.98,1.87-1.52,2.17-2.32.26-.7.26-1.47,0-2.17-.3-.8-.96-1.34-2.17-2.32l-6.8-5.52c-.85-.69-1.27-1.03-1.53-1.39-.22-.31-.39-.66-.49-1.03-.11-.42-.11-.97-.11-2.06v-26.84c0-4.57,0-6.86.81-8.46.72-1.41,1.85-2.54,3.26-3.26,1.6-.81,3.89-.81,8.46-.81h17.47c4.57,0,6.87,0,8.46.81,1.41.72,2.54,1.85,3.26,3.26.81,1.59.81,3.89.81,8.46v58.81c0,1.09,0,1.64-.11,2.06-.1.37-.27.72-.49,1.03-.25.35-.67.69-1.51,1.38l-6.81,5.53c-1.21.98-1.87,1.52-2.17,2.32-.26.7-.26,1.47,0,2.17.3.8.96,1.34,2.17,2.32l6.79,5.52c.85.69,1.28,1.04,1.53,1.38.23.31.39.66.49,1.03.11.42.11.97.11,2.06v26.84c0,4.57,0,6.86-.81,8.46-.72,1.41-1.85,2.54-3.26,3.26-1.6.81-3.89.81-8.46.81h-17.47Z"/>
    </g>
  </g>
</svg>